<svg width="70" height="65" xmlns="http://www.w3.org/2000/svg" xmlns:xlink="http://www.w3.org/1999/xlink" xml:space="preserve" overflow="hidden"><g transform="translate(-569 -2392)"><path d="M32.5034 16.9271C23.9027 16.9271 16.9305 23.8993 16.9305 32.5 16.9305 41.1007 23.9027 48.0729 32.5034 48.0729 41.1041 48.0729 48.0763 41.1007 48.0763 32.5 48.0666 23.9033 41.1 16.9368 32.5034 16.9271ZM30.2893 38.8402 23.5029 32.0531 25.8091 29.747 30.2893 34.2272 39.4652 25.0521 41.7713 27.3582Z" fill="#FFFFFF" transform="matrix(1.07692 0 0 1 569 2392)"/><path d="M55.6055 33.3565C55.1984 32.858 55.1984 32.142 55.6055 31.6435L57.2738 29.5994C57.747 29.0202 57.6611 28.1671 57.082 27.6939 57.0424 27.6616 57.0011 27.6316 56.9583 27.604L54.7395 26.1754C54.1986 25.8272 53.9774 25.1466 54.21 24.547L55.1654 22.0865C55.4362 21.3893 55.0905 20.6047 54.3934 20.3338 54.3461 20.3155 54.2978 20.2997 54.2486 20.2868L51.6967 19.6138C51.0746 19.4498 50.6538 18.8707 50.6898 18.2284L50.8381 15.5932C50.88 14.8465 50.3087 14.2072 49.562 14.1653 49.5114 14.1624 49.4607 14.1624 49.4102 14.1653L46.7749 14.3135C46.1327 14.3496 45.5536 13.9288 45.3896 13.3067L44.7166 10.7548C44.5258 10.0317 43.7849 9.60016 43.0618 9.79096 43.0127 9.8039 42.9643 9.8196 42.9169 9.83802L40.4564 10.7934C39.8567 11.026 39.1762 10.8047 38.828 10.2639L37.3994 8.0451C36.9945 7.4163 36.1565 7.23477 35.5277 7.63967 35.4848 7.66729 35.4435 7.69729 35.404 7.72958L33.3599 9.39792C32.8614 9.80498 32.1453 9.80498 31.6469 9.39792L29.6028 7.72958C29.0236 7.25637 28.1705 7.34229 27.6973 7.9214 27.665 7.96094 27.635 8.00224 27.6074 8.0451L26.1788 10.2639C25.8306 10.8047 25.15 11.026 24.5504 10.7934L22.0898 9.83802C21.3927 9.56719 20.608 9.91284 20.3372 10.61 20.3189 10.6573 20.3031 10.7056 20.2902 10.7548L19.6171 13.3067C19.4531 13.9288 18.8741 14.3496 18.2318 14.3135L15.5966 14.1653C14.8499 14.1233 14.2106 14.6947 14.1686 15.4414 14.1658 15.4919 14.1658 15.5427 14.1686 15.5932L14.3169 18.2284C14.3529 18.8707 13.9321 19.4498 13.3101 19.6138L10.7582 20.2868C10.0351 20.4776 9.60355 21.2185 9.79435 21.9416 9.80728 21.9907 9.82299 22.0391 9.84141 22.0865L10.7968 24.547C11.0294 25.1467 10.8081 25.8272 10.2673 26.1754L8.04849 27.604C7.41955 28.0086 7.23768 28.8466 7.64231 29.4755 7.66993 29.5185 7.69999 29.5598 7.73229 29.5994L9.4013 31.6435C9.80836 32.142 9.80836 32.858 9.4013 33.3565L7.73229 35.4006C7.25921 35.9799 7.34534 36.833 7.92465 37.306 7.96419 37.3383 8.00556 37.3684 8.04849 37.396L10.2673 38.8246C10.8081 39.1728 11.0294 39.8534 10.7968 40.453L9.84141 42.9135C9.57057 43.6107 9.91622 44.3953 10.6133 44.6662 10.6607 44.6845 10.709 44.7003 10.7582 44.7132L13.3101 45.3862C13.9321 45.5502 14.3529 46.1293 14.3169 46.7716L14.1686 49.4068C14.1267 50.1535 14.6981 50.7928 15.4447 50.8347 15.4953 50.8376 15.546 50.8376 15.5966 50.8347L18.2318 50.6865C18.8741 50.6504 19.4531 51.0712 19.6171 51.6933L20.2902 54.2452C20.481 54.9683 21.2219 55.3998 21.945 55.209 21.9941 55.1961 22.0425 55.1804 22.0898 55.162L24.5504 54.2066C25.15 53.974 25.8306 54.1953 26.1788 54.7361L27.6074 56.9549C28.0123 57.5837 28.8502 57.7652 29.4791 57.3603 29.522 57.3327 29.5633 57.3027 29.6028 57.2704L31.6469 55.6021C32.1453 55.195 32.8614 55.195 33.3599 55.6021L35.404 57.2704C35.9832 57.7436 36.8362 57.6577 37.3095 57.0786 37.3418 57.0391 37.3717 56.9978 37.3994 56.9549L38.828 54.7361C39.1762 54.1953 39.8568 53.974 40.4564 54.2066L42.9169 55.162C43.614 55.4328 44.3987 55.0872 44.6696 54.39 44.6879 54.3427 44.7037 54.2944 44.7166 54.2452L45.3896 51.6933C45.5536 51.0712 46.1327 50.6504 46.7749 50.6865L49.4102 50.8347C50.1568 50.8766 50.7962 50.3053 50.8381 49.5586 50.841 49.5081 50.841 49.4573 50.8381 49.4068L50.6898 46.7716C50.6538 46.1293 51.0746 45.5502 51.6967 45.3862L54.2486 44.7132C54.9717 44.5224 55.4032 43.7815 55.2124 43.0584 55.1995 43.0093 55.1838 42.9609 55.1654 42.9135L54.21 40.453C53.9774 39.8533 54.1987 39.1728 54.7395 38.8246L56.9583 37.396C57.5871 36.9911 57.7686 36.1531 57.3637 35.5243 57.3361 35.4814 57.3061 35.4401 57.2738 35.4006ZM32.5034 50.1042C22.7809 50.1042 14.8992 42.2225 14.8992 32.5 14.8992 22.7775 22.7809 14.8958 32.5034 14.8958 42.2259 14.8958 50.1075 22.7775 50.1075 32.5 50.0967 42.218 42.2214 50.0933 32.5034 50.1042Z" fill="#FFFFFF" transform="matrix(1.07692 0 0 1 569 2392)"/></g></svg>